<svg id="Layer_1" data-name="Layer 1" xmlns="http://www.w3.org/2000/svg" viewBox="0 0 892.3 280.12"><title>22</title><path d="M960.91,459.87c-1.81,5.54-3.12,11.22-5.32,16.65a106.7,106.7,0,0,1-31.9,43.14,5.48,5.48,0,0,0-2.42,5.11c.89,18.37-8,32-21.57,43.17-8.79,7.27-18.82,12.47-29.34,16.74a4.36,4.36,0,0,0-3,3.37c-3.93,15.32-14.32,25-28.17,31.48A93.52,93.52,0,0,1,812.9,627c-1.38.21-2.74.17-3.65,1.76-7.89,13.83-20.56,21.15-35.38,25.31-14,3.93-28.25,4-42.56,2.75a11.18,11.18,0,0,0-8.7,2.33c-14,10.8-30.22,13.73-47.5,11.94-16.06-1.68-30.41-8.26-44.53-15.57q-19.3-10-38.11-20.9a19.08,19.08,0,0,0-12.34-2.86c-3.63.47-5.82-1.2-6.09-4.06-.29-3,1.61-4.79,5.44-5.21a27.07,27.07,0,0,1,16.87,3.6c16.65,9.6,33.43,19,50.82,27.16,13.1,6.17,26.77,9.89,41.45,9,8.11-.52,18.12-3.62,24.16-7.82-1.1-.35-2-.67-2.87-.91a101.24,101.24,0,0,1-31.43-13.86c-3-2-3.87-4.87-2.23-7.27s4.45-2.49,7.36-.55c14.12,9.36,29.79,14.09,46.55,15.62,14,1.28,28,1.29,41.64-2.53,9-2.53,17.29-6.54,23.89-13.43a7,7,0,0,0,2.27-3.22c-5-.07-9.91-.14-14.79-.51a161.45,161.45,0,0,1-38.33-7.51,20.3,20.3,0,0,1-2-.71,4.7,4.7,0,0,1-2.7-6.08,4.54,4.54,0,0,1,5.83-2.65,156.3,156.3,0,0,0,21.17,5.48c19.65,3.42,39.25,4.29,58.63-1.63,9.27-2.82,17.78-7,24.53-14.21a32.05,32.05,0,0,0,7.13-11.58l-9.23,1.27c-17.43,2.34-34.87,1.94-52.3-.06-3.34-.38-5.06-2.32-4.75-5.21.28-2.68,2.32-4.33,5.54-4a239.52,239.52,0,0,0,28.33,1.5c11.12-.15,22.34-.42,33-3.51,18.5-5.33,35.05-14.15,46.85-30,4.6-6.19,7.29-14.36,7-20-.93-.22-1.54.45-2.22.85a187.58,187.58,0,0,1-72.94,25l-.92.1c-4.34.39-6.73-1-7-4.11-.24-2.93,1.76-4.61,5.94-5.15,28.07-3.64,54.24-12.64,77.49-28.93,19.54-13.69,32.56-32.24,38.51-55.51a3,3,0,0,0,.06-2.23c-4.63,3.94-9.15,7.95-13.85,11.74-20.92,16.87-43.42,31.06-68.75,40.52-20.23,7.55-41.07,9.09-62.49,8.25-35.47-1.39-69.28-9.56-102.24-22.19-18-6.91-36.66-11.37-56.1-12.07-19.64-.72-37.58,3.64-52.78,16.66-13.88,11.89-22.63,27.21-28.9,44.1a131.77,131.77,0,0,0-6.21,22.52c-.62,3.37-2.49,4.93-5.42,4.54s-4.34-2.46-3.78-5.93a131.6,131.6,0,0,1,7.36-26.34c6.77-17.47,16.08-33.26,30.52-45.61,14.72-12.59,31.86-18.7,51.18-19.22,24.27-.65,47.28,5,69.81,13.39,20,7.42,40.15,14,61.29,17.21,20.79,3.14,41.7,5,62.7,3.31,17.11-1.38,33.09-7.08,48.44-14.54a254.45,254.45,0,0,0,62.17-43c5.86-5.44,13-3.65,15.8,1.29.49.87.91,1.79,1.36,2.68Z" transform="translate(-68.61 -391.42)"/><path d="M521.81,391.42c5.83.42,11.66.76,17.47,1.28,17.66,1.59,35.09,4.26,51.62,11.07a47,47,0,0,1,13.42,8c9.21,8.12,9.2,18.69-.09,26.77-5.61,4.88-12.27,7.83-19.21,10.19-17.76,6-36.16,8.48-54.79,9.41-28,1.39-55.7,0-82.83-7.61-8.53-2.39-16.8-5.51-23.84-11.13-10.79-8.63-10.74-20.24.2-28.74,8.54-6.65,18.64-9.82,28.94-12.43,16.31-4.14,32.95-5.86,49.73-6.45a4.94,4.94,0,0,0,2.71-.39Zm-11.63,54.87c19.37,0,35.66-1.15,51.76-4.31,10.71-2.11,21.34-4.62,30.8-10.37,7.84-4.75,7.78-8.23,0-13-7.19-4.39-15.16-6.79-23.28-8.7-21.37-5-43.07-6.35-64.95-5.73-16.81.48-33.45,2.19-49.76,6.39-7.88,2-15.66,4.42-22.4,9.2-5.64,4-5.62,6.71,0,10.77,4.73,3.4,10.1,5.48,15.61,7.2C469.19,444.38,491.08,446.06,510.18,446.29Z" transform="translate(-68.61 -391.42)"/><path d="M78.72,458.88c1.08,8.62,4.16,16.39,8.17,23.82,10.55,19.58,26.44,33.55,46,43.63a180.63,180.63,0,0,0,62.68,19.28c3.07.35,5,2.33,4.88,4.92-.14,2.78-2.33,4.64-5.63,4.31a185.62,185.62,0,0,1-74.85-25c-.77-.47-1.58-.88-2.7-1.49a27.29,27.29,0,0,0,2.19,11.32c4,10.49,11.65,18,20.57,24.36,17.49,12.52,37.15,17.86,58.51,18.12a272.37,272.37,0,0,0,32.95-1.34c.51-.06,1-.08,1.54-.09,3,0,4.9,1.58,5.13,4.2a4.58,4.58,0,0,1-4.35,5,215.62,215.62,0,0,1-46.48.81c-5.09-.51-10.16-1.24-15.54-1.9a33,33,0,0,0,10,14.36c9.33,8.08,20.57,11.83,32.46,13.9,22.8,4,45.05,1,67-5.71.69-.21,1.35-.49,2-.68,2.83-.74,5.08.37,5.94,2.9a4.52,4.52,0,0,1-3,5.88,121.64,121.64,0,0,1-17.48,4.93,165.81,165.81,0,0,1-34.9,3.74,3.34,3.34,0,0,0-2.58.46,41.79,41.79,0,0,0,16.08,12.47c13,6,26.86,7.33,41,7,18.55-.48,36.33-4,52.62-13.37,1.78-1,3.46-2.21,5.21-3.29,2.65-1.64,5.37-1.29,6.86.86,1.6,2.31,1,5.07-1.65,6.9-9.74,6.77-20.53,11.2-31.94,14.23l-2.91.79a8.83,8.83,0,0,0,3.6,2.36c14.85,7.23,30.16,7.06,45.71,2.75,14.1-3.91,26.69-11.18,39.49-17.92,9.46-5,18.71-10.33,28-15.58a27,27,0,0,1,17.54-3.22c3,.42,4.49,2.09,4.35,4.9a4.27,4.27,0,0,1-5,4.27c-6.31-1-11.4,1.54-16.52,4.54-15.6,9.17-31.51,17.77-47.89,25.47C372,668.3,357.47,672.1,342,671.45c-13.9-.58-26.42-4.85-37.19-13.73-1.61-1.33-3.14-1.24-4.85-1.07a138.82,138.82,0,0,1-32-.12c-14.34-1.86-27.61-6.37-38.64-16.16a38.71,38.71,0,0,1-8.56-10.44c-1.13-2.08-2.6-2.71-4.82-3-13.87-2.14-27.11-6-38.32-15-8-6.32-13.58-14.26-15.78-24.31-.38-1.73-1.39-2.28-2.78-2.85-11.38-4.67-22.17-10.37-31.49-18.5-9.88-8.61-17-18.91-19.18-32.13a35.68,35.68,0,0,1-.34-9.51A4.73,4.73,0,0,0,106,520c-18.88-15.49-31.57-34.91-37-58.85-1.14-5,.37-8.95,4.27-11.15s8-1.53,11.83,1.94c19,17.39,39.73,32.23,63,43.47,20,9.66,40.85,15.32,63.29,15.06A306.78,306.78,0,0,0,320,489.35c15.54-6.05,31.52-10.73,48.2-12.49,16.27-1.72,32.45-2,48.16,3.69,19.3,7,33.43,20.16,44.08,37.32A141.49,141.49,0,0,1,479,566.5c.67,3.52-.68,5.87-3.54,6.4s-4.9-1-5.61-4.61c-3.17-16-8.58-31.26-17.19-45.24-16.21-26.34-39.55-39.33-70.81-38-20.08.87-39.15,5.8-57.86,12.7-18.33,6.75-36.79,13.07-56.09,16.54-24.28,4.36-48.74,6.6-73.37,4.61-18.25-1.47-35.29-7.6-51.64-15.62C120,492.08,99.4,477.51,80.53,460.48Z" transform="translate(-68.61 -391.42)"/><path d="M699.91,595.77a55.11,55.11,0,0,1-13.08-2c-1.65-.48-2.44-.51-2.69,1.71-1.13,9.9-8.26,16.67-18.27,17.9-11.18,1.38-20.86-2.4-29.78-8.64-2-1.37-2.72-1.5-3.89.94-3.2,6.66-9,9.72-16.17,10.08-15.72.81-26.68-7.29-35.23-19.49a4.48,4.48,0,0,1,1.15-6.52c2.3-1.54,4.89-1,6.7,1.5,3.93,5.55,8.65,10.18,14.92,13,4.4,2,9,3,13.8,1.88,4.46-1,6.92-3.65,7.64-8.17a21.21,21.21,0,0,0,.3-3.37,4.78,4.78,0,0,1,3.05-4.89c2.12-.88,4-.24,5.63,1.32a58,58,0,0,0,12.4,9.1c4.76,2.55,9.73,4.29,15.28,4.18,10-.2,14.89-6.06,13.11-15.91-.07-.4-.2-.79-.28-1.2-.38-2-.13-3.92,1.65-5.27a4.85,4.85,0,0,1,5.76-.21c7.43,4.22,15.55,5,23.86,4.64,4.42-.19,8-2,9.75-6.32s.51-8.24-2.25-11.81c-1.23-1.59-3.82-2.63-1.54-5.46s3.6-3.51,7.42-2.26c6.77,2.23,13.64,4,20.85,3.52,7.55-.46,10.19-5.64,6.28-12.18a35,35,0,0,0-4.7-6.09,11,11,0,0,1-1.78-2.1,4.46,4.46,0,0,1,.61-5.67c1.63-1.65,4-2.14,5.63-.7,5.64,4.94,10.64,10.55,11.23,18.46.74,10-5.67,16.79-16.09,17.51a50.46,50.46,0,0,1-13.82-.85c-1.1-.23-1.86-.56-1.93,1.21-.67,16.12-8.26,22.9-24.59,22.11Z" transform="translate(-68.61 -391.42)"/><path d="M394.37,603.81a68.69,68.69,0,0,1-12.67,7.42c-7.39,3.09-15,4.38-22.87,2.25-8.48-2.29-13.66-7.74-15-16.45-.41-2.69-1.21-2.91-3.69-2.28a52,52,0,0,1-20.47,1.53c-11.62-1.71-18-9.79-17.24-21.53,0-.5,0-1,0-1.84-5.32.9-10.55,1.61-15.87,1.12-14-1.3-20.38-13.54-13.39-25.66a41.74,41.74,0,0,1,7.43-9.4,4.79,4.79,0,0,1,6.66-.39c2,1.81,2.07,4.51,0,6.84a45.54,45.54,0,0,0-6.19,8c-3.23,5.84-.63,10.68,6.14,11.27,7.86.68,15.28-1.37,22.65-3.74,1.4-.45,2.88-2.36,4.52,0,2.12,3.08,2.51,5.16.58,7.54a13,13,0,0,0-3.28,7.47c-.36,5.79,2.8,10.14,8.59,10.87,8.61,1.07,17,.07,24.87-4,2.16-1.11,4.21-1.81,6.35-.34s2.17,3.71,1.71,6.07a20.16,20.16,0,0,0-.48,4.88c.4,6.75,4,10.4,10.73,11.37,6.18.88,11.81-.79,17.21-3.57a54.54,54.54,0,0,0,12.5-8.92c1.81-1.72,3.72-3,6.34-1.9s3,3.23,3.09,5.78c.19,8.5,6.13,12.59,15.52,10.72,8.77-1.73,15.13-7,20.34-14a11.26,11.26,0,0,1,2-2.34,4.47,4.47,0,0,1,5.72,0c2,1.53,2.19,3.7,1.21,5.84-5.84,12.78-25.26,22.42-38.93,19.49C401.53,614.6,397,610.46,394.37,603.81Z" transform="translate(-68.61 -391.42)"/><path d="M459.52,548.9c0,2.41-1.14,4-3.24,4.51a4.6,4.6,0,0,1-5.65-2.59A95.3,95.3,0,0,0,439.24,534c-9.73-11.54-21.1-20.71-36.1-24.54-9.25-2.36-18.59-1.57-27.91-.61C353.68,511.08,333.35,518,313,525c-18.66,6.4-37.39,12.6-57,15.31a139.5,139.5,0,0,1-21.51,1.54c-3.59-.06-5.36-1.48-5.44-4.42-.08-3.11,1.72-4.81,5.4-4.83,15-.08,29.65-2.6,44.1-6.5,17.46-4.73,34.36-11.2,51.59-16.65a232.5,232.5,0,0,1,52.44-10.64c28.05-2.16,48.91,10.31,65.72,31.38a102,102,0,0,1,10.2,15.4A6.24,6.24,0,0,1,459.52,548.9Z" transform="translate(-68.61 -391.42)"/><path d="M638.52,498.7c22.13.22,41.5,4.72,60.59,10.73,16.36,5.15,32.4,11.26,48.92,15.92,15.31,4.32,30.82,7.2,46.78,7.23,2.51,0,4.54.78,5.32,3.29a4.48,4.48,0,0,1-1.74,5.2c-1.16.88-2.51.78-3.85.78-19.22,0-37.75-4-56-9.55-18.57-5.64-36.66-12.77-55.43-17.83A180.1,180.1,0,0,0,640.53,508c-15-.37-27.74,5-39,14.39A95.25,95.25,0,0,0,579.1,550c-1.87,3.41-4.21,4.47-6.93,3.12s-3.25-4.17-1.39-7.44c10.72-18.85,24.59-34.4,45.26-42.73A55.53,55.53,0,0,1,638.52,498.7Z" transform="translate(-68.61 -391.42)"/><path d="M684.74,555.68a46.72,46.72,0,0,1-8.26-.91c-.87-.16-1.67-.63-1.7,1.1-.26,14.16-6.95,20.8-21.23,21.11-9.82.21-18.59-3-26.47-8.68-1.7-1.23-2.42-1.39-3.6.67-4.21,7.28-11.53,10.27-20.4,8.46-8.28-1.7-15.23-6-21.43-11.58a4.5,4.5,0,0,1-.61-6.6,4.67,4.67,0,0,1,6.88-.31c4.48,3.86,9.28,7.16,15,8.84,8,2.35,12.91-.52,14.19-8.77.66-4.21,3.75-6.1,6.73-5.22a8.33,8.33,0,0,1,3.2,2.34c6.57,6.25,14.11,10.54,23.33,11.46a21.76,21.76,0,0,0,9.42-1.08c5.28-1.86,7.14-6,5.12-11.3a21.87,21.87,0,0,0-2.94-5c-1.58-2.13-1.84-4.38-.19-6.53s4.16-2.47,6.66-1.38c5.81,2.53,11.77,4.28,18.19,4.1a9.48,9.48,0,0,0,8.48-5.23c1.42-2.58,1.31-5-1-7.3-2.47-2.45-2.61-5.32-.57-7.26s4.63-1.7,7.11.62c6.63,6.17,6.07,16.88-1.22,23.45C695.4,554.33,691.21,555.76,684.74,555.68Z" transform="translate(-68.61 -391.42)"/><path d="M375.87,568.46c9.63-.37,17.79-4.79,24.87-11.48,1.78-1.69,3.49-3.3,6.18-2.45s3.4,3.11,3.82,5.73c1.17,7.33,6.14,10.43,13.47,8.5,6-1.57,11-4.94,15.63-9a4.69,4.69,0,0,1,6-.66c1.89,1.16,2.36,3,1.92,5.11a4.13,4.13,0,0,1-1.44,2.31c-6.93,6-14.46,10.91-23.87,11.91-7.75.82-14.05-1.74-18-8.69-1.3-2.33-2.12-1.79-3.81-.61-9.73,6.82-20.38,10.15-32.32,7.83-10.67-2.07-16.09-9.18-15.21-19.93.19-2.3-1.06-1.72-2.22-1.5-4.56.86-9.13,1.49-13.76.47-9.84-2.15-16.5-12.12-14.15-21.23a13.51,13.51,0,0,1,5.26-7.74,4.48,4.48,0,0,1,6.36.64c1.63,2,1.73,4.36-.16,6.13-2.21,2.06-3.28,4.27-2.13,7.11a9.21,9.21,0,0,0,7.87,6.12c5.42.55,10.62-.73,15.68-2.61,1.25-.46,2.47-1,3.71-1.5,2.43-1,4.72-.79,6.43,1.34a5,5,0,0,1,0,6.53,18.17,18.17,0,0,0-3.6,7.08c-.82,4,.67,7,4.41,8.84A21,21,0,0,0,375.87,568.46Z" transform="translate(-68.61 -391.42)"/></svg>